<svg width="20" height="18" viewBox="0 0 20 18" fill="none" xmlns="http://www.w3.org/2000/svg">
<path d="M16.4859 9.06591C16.3492 8.57758 16.1951 8.06091 16.0234 7.50508C15.515 6.1036 15.1716 4.64768 15.0001 3.16675C15.0001 2.94573 15.0879 2.73377 15.2442 2.57749C15.4004 2.42121 15.6124 2.33341 15.8334 2.33341C16.0544 2.33341 16.2664 2.42121 16.4227 2.57749C16.5789 2.73377 16.6667 2.94573 16.6667 3.16675C16.6667 3.38776 16.7545 3.59972 16.9108 3.756C17.0671 3.91228 17.2791 4.00008 17.5001 4.00008C17.7211 4.00008 17.9331 3.91228 18.0893 3.756C18.2456 3.59972 18.3334 3.38776 18.3334 3.16675C18.3334 2.50371 18.07 1.86782 17.6012 1.39898C17.1323 0.93014 16.4964 0.666748 15.8334 0.666748C15.1704 0.666748 14.5345 0.93014 14.0656 1.39898C13.5968 1.86782 13.3334 2.50371 13.3334 3.16675C13.3541 3.80308 13.4432 4.43534 13.5992 5.05258L9.59924 8.16675L4.97591 4.83341H7.50007C7.72109 4.83341 7.93305 4.74562 8.08933 4.58934C8.24561 4.43306 8.33341 4.22109 8.33341 4.00008C8.33341 3.77907 8.24561 3.56711 8.08933 3.41083C7.93305 3.25455 7.72109 3.16675 7.50007 3.16675H4.97591C4.62971 3.16664 4.29235 3.27604 4.0121 3.47929C3.73185 3.68253 3.52306 3.96921 3.41561 4.29831C3.30816 4.62741 3.30756 4.98206 3.41388 5.31152C3.52021 5.64099 3.72802 5.92838 4.00757 6.13258L8.23341 9.22591L7.03508 10.1584C6.29073 9.45761 5.31283 9.05791 4.29071 9.03672C3.26859 9.01552 2.27497 9.37434 1.50221 10.0437C0.729458 10.713 0.232549 11.6453 0.107695 12.66C-0.0171588 13.6747 0.238924 14.6996 0.826362 15.5363C1.4138 16.373 2.2908 16.962 3.28757 17.1892C4.28434 17.4165 5.32996 17.2658 6.222 16.7663C7.11403 16.2668 7.78901 15.4542 8.11625 14.4856C8.4435 13.5171 8.39972 12.4615 7.99341 11.5234L14.0676 6.79925C14.1851 7.19591 14.6734 8.78591 14.7809 9.15175C13.7848 9.41182 12.9205 10.0318 12.3549 10.892C11.7893 11.7522 11.5626 12.7915 11.7186 13.809C11.8746 14.8266 12.4022 15.7503 13.1995 16.4015C13.9968 17.0528 15.0072 17.3854 16.0354 17.3351C17.0636 17.2849 18.0368 16.8553 18.7667 16.1294C19.4967 15.4035 19.9317 14.4328 19.9878 13.4049C20.0438 12.3769 19.7168 11.3647 19.07 10.5638C18.4233 9.76289 17.5026 9.23011 16.4859 9.06841V9.06591ZM4.16674 15.6667C3.67229 15.6667 3.18894 15.5201 2.77782 15.2454C2.36669 14.9707 2.04626 14.5803 1.85704 14.1235C1.66782 13.6666 1.61832 13.164 1.71478 12.679C1.81124 12.1941 2.04934 11.7486 2.39897 11.399C2.74861 11.0493 3.19406 10.8112 3.67902 10.7148C4.16397 10.6183 4.66663 10.6678 5.12345 10.857C5.58027 11.0463 5.97071 11.3667 6.24542 11.7778C6.52012 12.1889 6.66674 12.6723 6.66674 13.1667C6.66674 13.8298 6.40335 14.4657 5.93451 14.9345C5.46567 15.4034 4.82978 15.6667 4.16674 15.6667ZM15.8334 15.6667C15.339 15.6667 14.8556 15.5201 14.4445 15.2454C14.0334 14.9707 13.7129 14.5803 13.5237 14.1235C13.3345 13.6666 13.285 13.164 13.3814 12.679C13.4779 12.1941 13.716 11.7486 14.0656 11.399C14.4153 11.0493 14.8607 10.8112 15.3457 10.7148C15.8306 10.6183 16.3333 10.6678 16.7901 10.857C17.2469 11.0463 17.6374 11.3667 17.9121 11.7778C18.1868 12.1889 18.3334 12.6723 18.3334 13.1667C18.3334 13.8298 18.07 14.4657 17.6012 14.9345C17.1323 15.4034 16.4964 15.6667 15.8334 15.6667Z" fill="#3922C5"/>
</svg>
